<svg xmlns="http://www.w3.org/2000/svg" fill="none" viewBox="0 0 938 228">
  <g clip-path="url(#a)">
    <g fill="#3AD271" filter="url(#b)">
      <path d="M75 200h20v20H75zm0-175h20v20H75zm0-24h20v20H75zm25 0h20v20h-20zM75 50h20v20H75zm25 0h20v20h-20zm0-24h20v20h-20zm0 49h20v20h-20zm0 50h20v20h-20zm0-25h20v20h-20zm0 50h20v20h-20zm0 25h20v20h-20zm25-100h20v20h-20zm0 50h20v20h-20zm0-25h20v20h-20zm0 50h20v20h-20zm0 25h20v20h-20zm25-50h20v20h-20zm0 25h20v20h-20zm0 25h20v20h-20zm25-25h20v20h-20zM75 175h20v20H75zm-25-74h20v20H50zm-25 0h20v20H25zm25 25h20v20H50zm-25 0h20v20H25zm25 25h20v20H50zm-25 0h20v20H25zm-25 0h20v20H0zm50 49h20v20H50zm75-174h20v20h-20z"/>
    </g>
    <g fill="#fff" filter="url(#c)">
      <path d="M298.306 51.5391H281.44c1.994 2.2487 3.476 4.6251 4.447 7.1294 1.022 2.5042 1.533 5.1106 1.533 7.8193 0 3.5264-.946 6.8483-2.837 9.9658-1.89 3.0664-4.369 5.5707-7.436 7.5127-3.117 1.9932-6.771 3.5519-10.962 4.6763-4.191 1.1243-8.739 1.6865-13.645 1.6865h-12.496c-.613.46-1.303 1.201-2.07 2.2231-.715.9711-1.073 1.9166-1.073 2.8365 0 2.2487.894 3.8074 2.683 4.6763 1.789.869 5.034 1.354 9.736 1.456 4.651.103 9.352.307 14.105.614 4.753.255 8.152.409 10.196.46 2.964.153 5.903.766 8.816 1.84 2.913 1.022 5.443 2.376 7.589 4.063 2.351 1.788 4.293 4.088 5.827 6.899 1.533 2.76 2.299 5.954 2.299 9.582 0 3.885-.945 7.539-2.836 10.963-1.84 3.424-4.676 6.388-8.509 8.892-4.038 2.607-8.893 4.626-14.566 6.057-5.622 1.431-12.598 2.146-20.928 2.146-13.441 0-23.662-1.635-30.664-4.906-7.002-3.271-10.503-8.177-10.503-14.719 0-4.037 1.891-7.359 5.673-9.966 3.782-2.606 9.66-4.037 17.632-4.293v-.92c-4.702-1.584-8.381-3.679-11.039-6.286-2.606-2.657-3.91-5.724-3.91-9.199 0-2.146.512-3.9607 1.534-5.4428 1.073-1.4821 2.427-2.7853 4.063-3.9097 1.431-.971 3.168-1.7887 5.213-2.4531 2.044-.7155 3.756-1.2777 5.136-1.6865v-.8433c-6.9-2.5553-11.985-5.6729-15.256-9.3525-3.219-3.6797-4.829-8.1771-4.829-13.4922 0-7.5127 3.449-13.5178 10.349-18.0152 6.95-4.4974 15.741-6.7461 26.371-6.7461 3.475 0 6.823.3067 10.042.92 3.271.5621 5.75 1.0732 7.437 1.5332h29.744v8.2793Zm-35.954 14.6421c0-5.9795-.945-10.7069-2.836-14.1822-1.891-3.4752-4.804-5.2129-8.74-5.2129-1.993 0-3.73.4855-5.213 1.4566-1.482.9199-2.683 2.2742-3.603 4.063-.868 1.7376-1.456 3.7819-1.763 6.1328-.306 2.2998-.46 4.6762-.46 7.1294 0 5.5706.971 10.1447 2.913 13.7221 1.942 3.5775 4.702 5.3662 8.28 5.3662 3.679 0 6.49-1.6098 8.432-4.8295 1.993-3.2198 2.99-7.7683 2.99-13.6455Zm12.879 64.3948c0-1.738-.486-3.476-1.457-5.213-.971-1.687-3.143-3.067-6.516-4.14-1.84-.306-4.88-.511-9.122-.613-4.191-.102-9.966-.153-17.325-.153-1.789 1.533-3.297 3.347-4.523 5.442-1.176 2.096-1.764 4.626-1.764 7.59 0 1.277.358 2.683 1.074 4.216.715 1.533 1.84 2.964 3.373 4.293 1.788 1.482 3.782 2.632 5.979 3.45 2.198.869 5.52 1.303 9.966 1.303 6.593 0 11.627-1.278 15.102-3.833 3.475-2.555 5.213-6.669 5.213-12.342Z"/>
      <path d="M378.468 100.678c-1.788 2.913-3.961 5.673-6.516 8.28-2.504 2.555-5.366 4.752-8.586 6.592-3.424 1.942-6.899 3.399-10.426 4.37-3.475 1.022-7.487 1.533-12.035 1.533-7.564 0-14.106-1.073-19.625-3.22-5.469-2.146-9.992-5.034-13.569-8.662-3.578-3.629-6.261-7.896-8.049-12.8024-1.738-4.9574-2.607-10.3236-2.607-16.0987 0-5.2129.946-10.1958 2.837-14.9487 1.942-4.804 4.676-9.0715 8.202-12.8023 3.475-3.6285 7.845-6.5672 13.109-8.8159 5.315-2.2487 11.244-3.373 17.785-3.373 7.155 0 13.033.8688 17.632 2.6064 4.6 1.7377 8.407 4.1397 11.422 7.2061 2.914 2.9131 5.034 6.3628 6.363 10.3491 1.329 3.9352 1.993 8.0749 1.993 12.4189v4.983h-51.822c0 10.4768 2.019 18.4495 6.056 23.9175 4.038 5.469 10.452 8.203 19.242 8.203 4.804 0 9.123-1.303 12.956-3.91 3.833-2.657 7.103-6.005 9.812-10.0421l5.826 4.2161Zm-29.284-29.1306c0-3.0664-.153-6.2095-.46-9.4292-.307-3.2198-.843-5.8518-1.61-7.896-.869-2.4021-2.07-4.2163-3.603-5.4429-1.482-1.2266-3.373-1.8398-5.673-1.8398-3.935 0-7.078 1.9931-9.429 5.9794-2.351 3.9864-3.628 10.2981-3.833 18.9351l24.608-.3066Zm107.99-19.5484c3.782 3.5264 6.67 7.7427 8.663 12.6489 1.993 4.9063 2.99 10.2214 2.99 15.9454 0 5.6728-.997 11.039-2.99 16.0986-1.942 5.0081-4.804 9.3011-8.586 12.8791-4.037 3.833-8.867 6.771-14.489 8.816-5.57 2.044-11.959 3.066-19.165 3.066-6.235 0-11.984-.894-17.248-2.683-5.213-1.789-9.838-4.472-13.876-8.049-3.884-3.424-6.95-7.641-9.199-12.6492-2.249-5.0596-3.373-10.7069-3.373-16.9419 0-6.1328.971-11.5757 2.913-16.3286 1.993-4.8041 4.957-9.0715 8.893-12.8023 3.781-3.5775 8.432-6.3372 13.952-8.2793 5.57-1.9931 11.78-2.9897 18.628-2.9897 7.155 0 13.441.9966 18.859 2.9897 5.468 1.9421 10.144 4.7018 14.028 8.2793Zm-19.625 53.126c1.125-2.862 1.942-6.3377 2.453-10.4263.563-4.0885.844-8.8414.844-14.2588 0-3.5774-.256-7.666-.767-12.2656-.511-4.5996-1.278-8.2282-2.3-10.8857-1.226-3.2198-2.938-5.7495-5.136-7.5894-2.146-1.8398-4.881-2.7597-8.203-2.7597-3.628 0-6.541.9965-8.739 2.9897-2.146 1.9932-3.807 4.5741-4.983 7.7427-1.073 2.9131-1.814 6.3372-2.223 10.2724-.409 3.8842-.613 7.9471-.613 12.189 0 5.5706.179 10.1958.536 13.8755.358 3.6286 1.227 7.2832 2.607 10.9622 1.175 3.169 2.862 5.673 5.059 7.513 2.198 1.84 4.983 2.76 8.356 2.76 3.067 0 5.699-.844 7.896-2.53 2.198-1.738 3.936-4.268 5.213-7.589Zm120.026-53.5859H540.71c1.993 2.2487 3.475 4.6251 4.446 7.1294 1.022 2.5042 1.533 5.1106 1.533 7.8193 0 3.5264-.945 6.8483-2.836 9.9658-1.891 3.0664-4.37 5.5707-7.436 7.5127-3.118 1.9932-6.772 3.5519-10.962 4.6763-4.191 1.1243-8.74 1.6865-13.646 1.6865h-12.496c-.613.46-1.303 1.201-2.069 2.2231-.716.9711-1.074 1.9166-1.074 2.8365 0 2.2487.895 3.8074 2.684 4.6763 1.788.869 5.034 1.354 9.735 1.456 4.651.103 9.353.307 14.106.614 4.753.255 8.151.409 10.196.46 2.964.153 5.902.766 8.816 1.84 2.913 1.022 5.442 2.376 7.589 4.063 2.351 1.788 4.293 4.088 5.826 6.899 1.533 2.76 2.3 5.954 2.3 9.582 0 3.885-.946 7.539-2.837 10.963-1.839 3.424-4.676 6.388-8.509 8.892-4.037 2.607-8.892 4.626-14.565 6.057-5.622 1.431-12.598 2.146-20.928 2.146-13.442 0-23.663-1.635-30.665-4.906-7.001-3.271-10.502-8.177-10.502-14.719 0-4.037 1.891-7.359 5.673-9.966 3.782-2.606 9.659-4.037 17.632-4.293v-.92c-4.702-1.584-8.382-3.679-11.039-6.286-2.607-2.657-3.91-5.724-3.91-9.199 0-2.146.511-3.9607 1.533-5.4428 1.073-1.4821 2.428-2.7853 4.063-3.9097 1.431-.971 3.169-1.7887 5.213-2.4531 2.044-.7155 3.756-1.2777 5.136-1.6865v-.8433c-6.899-2.5553-11.984-5.6729-15.255-9.3525-3.22-3.6797-4.83-8.1771-4.83-13.4922 0-7.5127 3.45-13.5178 10.349-18.0152 6.951-4.4974 15.741-6.7461 26.372-6.7461 3.475 0 6.822.3067 10.042.92 3.271.5621 5.75 1.0732 7.436 1.5332h29.744v8.2793Zm-35.953 14.6421c0-5.9795-.946-10.7069-2.837-14.1822-1.891-3.4752-4.804-5.2129-8.739-5.2129-1.993 0-3.731.4855-5.213 1.4566-1.482.9199-2.683 2.2742-3.603 4.063-.869 1.7376-1.457 3.7819-1.763 6.1328-.307 2.2998-.46 4.6762-.46 7.1294 0 5.5706.971 10.1447 2.913 13.7221 1.942 3.5775 4.702 5.3662 8.279 5.3662 3.68 0 6.491-1.6098 8.433-4.8295 1.993-3.2198 2.99-7.7683 2.99-13.6455ZM534.5 130.576c0-1.738-.485-3.476-1.456-5.213-.971-1.687-3.143-3.067-6.516-4.14-1.84-.306-4.881-.511-9.123-.613-4.19-.102-9.966-.153-17.325-.153-1.789 1.533-3.296 3.347-4.523 5.442-1.175 2.096-1.763 4.626-1.763 7.59 0 1.277.358 2.683 1.073 4.216.716 1.533 1.84 2.964 3.373 4.293 1.789 1.482 3.782 2.632 5.98 3.45 2.197.869 5.519 1.303 9.966 1.303 6.592 0 11.626-1.278 15.102-3.833 3.475-2.555 5.212-6.669 5.212-12.342Z"/>
      <path d="M631.682 56.9819c0 3.8841-1.201 7.3083-3.603 10.2725-2.402 2.9131-5.571 4.3696-9.506 4.3696-3.731 0-6.9-.9455-9.506-2.8364-2.555-1.891-3.833-4.6763-3.833-8.356 0-1.7887.128-3.1686.383-4.1396.256-1.0221.486-1.9676.69-2.8364-2.351.1022-4.829.9199-7.436 2.4531-2.606 1.5332-4.906 3.5775-6.899 6.1328v42.0865c0 1.789.281 3.271.843 4.446.562 1.176 1.508 2.096 2.836 2.76 1.125.562 2.939 1.048 5.443 1.457 2.556.357 4.395.562 5.52.613V119h-51.286v-5.596c1.278-.102 2.555-.23 3.833-.383 1.329-.205 2.453-.46 3.373-.767 1.636-.562 2.76-1.431 3.373-2.607.614-1.175.92-2.708.92-4.599V60.4316c0-1.8398-.434-3.4752-1.303-4.9062-.869-1.4821-1.917-2.6576-3.143-3.5264-.92-.6133-2.096-1.1243-3.527-1.5332-1.379-.4088-2.913-.6899-4.599-.8432v-5.5962l36.567-1.9932 1.15 1.1499v11.1157h.306c3.527-4.0885 7.257-7.2827 11.193-9.5825 3.986-2.3509 8.126-3.5264 12.419-3.5264 4.753 0 8.56 1.4821 11.422 4.4463 2.913 2.9131 4.37 6.695 4.37 11.3457ZM717.67 117.39c-2.248.971-4.906 1.866-7.972 2.683-3.067.818-6.312 1.227-9.736 1.227-6.286 0-10.911-.92-13.876-2.76-2.964-1.891-4.982-4.574-6.056-8.049h-.46c-1.737 1.737-3.424 3.219-5.059 4.446-1.585 1.227-3.297 2.274-5.136 3.143-2.403 1.124-4.728 1.942-6.977 2.453-2.197.562-5.289.843-9.275.843-5.929 0-10.988-1.737-15.179-5.212-4.191-3.527-6.286-8.178-6.286-13.953 0-3.3215.46-6.1324 1.38-8.4322.92-2.3509 2.223-4.4207 3.909-6.2095 1.533-1.6354 3.297-2.9897 5.29-4.063 2.044-1.0732 4.267-2.0698 6.669-2.9897 4.6-1.6865 10.119-3.4242 16.559-5.2129 6.439-1.8398 11.141-3.4752 14.105-4.9062v-7.3594c0-1.2777-.102-2.9642-.306-5.0596-.205-2.0954-.639-3.8585-1.304-5.2895-.715-1.6355-1.839-3.0153-3.373-4.1397-1.533-1.1243-3.552-1.6865-6.056-1.6865-2.248 0-4.139.3322-5.673.9966-1.482.6133-2.683 1.2521-3.603 1.9165.154 1.0221.588 2.5809 1.304 4.6762.715 2.0954 1.073 4.1141 1.073 6.0562 0 .8688-.23 1.9676-.69 3.2964-.46 1.2777-1.124 2.2998-1.993 3.0664-1.176 1.0221-2.505 1.8143-3.987 2.3765-1.431.5621-3.654.8432-6.669.8432-4.293 0-7.538-1.0221-9.736-3.0664-2.197-2.0954-3.296-4.804-3.296-8.126 0-2.8619 1.124-5.4173 3.373-7.666 2.3-2.2998 5.085-4.1907 8.356-5.6728 3.219-1.5332 6.925-2.7087 11.115-3.5264 4.191-.8688 8.075-1.3032 11.653-1.3032 4.957 0 9.506.3066 13.645.9199 4.14.5622 7.871 1.7632 11.193 3.603 3.168 1.7888 5.673 4.3952 7.512 7.8194 1.891 3.373 2.837 7.7937 2.837 13.2622 0 5.775-.128 12.6233-.383 20.5449-.205 7.9215-.307 13.1346-.307 15.6386 0 2.3.332 4.114.996 5.443.716 1.329 1.789 2.325 3.22 2.99.869.409 2.223.664 4.063.766 1.891.051 3.603.077 5.136.077v5.596Zm-38.1-39.9398c-2.862.971-5.698 2.0954-8.509 3.373-2.811 1.2266-5.111 2.5298-6.899 3.9097-1.891 1.431-3.373 3.2708-4.447 5.5195-1.073 2.1976-1.61 4.8041-1.61 7.8194 0 3.9862.895 6.8742 2.684 8.6622 1.839 1.789 4.088 2.683 6.746 2.683 2.811 0 5.11-.562 6.899-1.686 1.84-1.175 3.45-2.606 4.83-4.293l.306-25.9878Z"/>
      <path d="M809.945 81.6665c0 10.7835-3.603 20.0335-10.809 27.7505-7.206 7.718-16.328 11.576-27.367 11.576-4.907 0-8.893-.511-11.959-1.533-3.067-.971-5.597-2.172-7.59-3.603h-.613v21.541c0 1.789.383 3.348 1.15 4.677.818 1.328 1.942 2.3 3.373 2.913 1.38.562 3.322 1.073 5.826 1.533 2.555.46 4.676.741 6.363.843v5.673H712.97v-5.673c1.278-.102 2.888-.306 4.83-.613 1.942-.256 3.398-.537 4.369-.843 1.636-.562 2.735-1.533 3.297-2.913.613-1.329.92-2.862.92-4.6V59.9717c-.154-1.6865-.562-3.1686-1.227-4.4463-.613-1.2777-1.61-2.402-2.99-3.3731-1.022-.6643-2.376-1.201-4.063-1.6098-1.686-.46-3.347-.7666-4.982-.9199v-5.5962l37.333-1.9932 1.15.9966v8.5093l.613.1533c3.373-3.4242 7.104-6.0817 11.193-7.9727 4.139-1.8909 8.228-2.8364 12.265-2.8364 10.579 0 18.935 3.7563 25.068 11.269 6.133 7.4616 9.199 17.2997 9.199 29.5142Zm-27.521.3066c0-3.833-.281-7.4871-.843-10.9624-.562-3.5263-1.559-6.6694-2.99-9.4292-1.38-2.7597-3.219-4.9573-5.519-6.5927-2.249-1.6354-5.009-2.4532-8.28-2.4532-3.321 0-5.979.5878-7.972 1.7632-1.993 1.1244-3.731 2.6065-5.213 4.4463v43.4659c.307 1.023.894 2.351 1.763 3.987.869 1.584 1.738 2.862 2.607 3.833 1.277 1.38 2.734 2.402 4.369 3.066 1.636.665 3.424.997 5.366.997 5.06 0 9.097-2.709 12.113-8.126 3.066-5.469 4.599-13.4669 4.599-23.9949ZM912.569 119H866.42v-5.596c1.022-.102 2.223-.23 3.603-.383 1.38-.154 2.402-.409 3.066-.767 1.074-.562 1.815-1.38 2.223-2.453.46-1.073.69-2.658.69-4.753V69.1709c0-5.264-.996-9.1992-2.989-11.8057-1.942-2.6064-4.728-3.9096-8.356-3.9096-2.045 0-3.961.3066-5.75.9199-1.737.6133-3.449 1.5076-5.136 2.6831-1.482 1.0221-2.683 2.0698-3.603 3.1431-.869 1.0732-1.61 2.0187-2.223 2.8364v41.1669c0 1.891.23 3.398.69 4.523.46 1.073 1.329 1.967 2.606 2.683.767.46 1.763.868 2.99 1.226 1.278.358 2.504.613 3.68.767V119h-46.61v-5.596c1.329-.102 2.607-.23 3.833-.383 1.278-.154 2.402-.409 3.373-.767 1.636-.613 2.735-1.482 3.297-2.607.613-1.175.92-2.708.92-4.599V19.5718c0-1.6354-.384-3.3731-1.15-5.2129-.767-1.8399-1.84-3.2197-3.22-4.1397-1.022-.66435-2.504-1.17542-4.446-1.53316-1.942-.40886-3.68-.66439-5.213-.76661V2.32324l38.1-1.993162 1.15 1.226562V54.2988h.306c1.943-1.7376 3.68-3.2964 5.213-4.6762 1.585-1.431 3.501-2.862 5.75-4.293 1.891-1.2266 4.344-2.2743 7.359-3.1431 3.067-.8688 6.363-1.3032 9.889-1.3032 8.28 0 14.489 2.3765 18.629 7.1294 4.191 4.7529 6.286 11.0135 6.286 18.7817v37.5636c0 1.891.281 3.399.843 4.523.562 1.124 1.61 2.019 3.143 2.683.92.409 1.942.767 3.067 1.073 1.124.307 2.504.562 4.139.767V119Z"/>
    </g>
    <g fill="#fff" filter="url(#d)">
      <path d="M237.906 188.586c0 3.297-1.101 6.125-3.304 8.484-2.204 2.36-4.993 3.539-8.368 3.539-1.5 0-2.718-.156-3.656-.468-.937-.297-1.711-.664-2.32-1.102h-.188v6.586c0 .547.118 1.023.352 1.43.25.406.594.703 1.031.89.422.172 1.016.328 1.781.469.782.141 1.43.227 1.946.258v1.734h-16.922v-1.734c.39-.031.883-.094 1.476-.188.594-.078 1.039-.164 1.336-.257.5-.172.836-.469 1.008-.891.188-.406.281-.875.281-1.406v-23.977c-.047-.515-.171-.969-.375-1.359-.187-.391-.492-.735-.914-1.032-.312-.203-.726-.367-1.242-.492-.516-.14-1.023-.234-1.523-.281v-1.711l11.414-.609.351.304v2.602l.188.047c1.031-1.047 2.172-1.86 3.422-2.438 1.265-.578 2.515-.867 3.75-.867 3.234 0 5.789 1.149 7.664 3.445 1.875 2.282 2.812 5.29 2.812 9.024Zm-8.414.094c0-1.172-.086-2.289-.258-3.352-.172-1.078-.476-2.039-.914-2.883-.422-.843-.984-1.515-1.687-2.015-.688-.5-1.531-.75-2.531-.75-1.016 0-1.829.179-2.438.539-.609.343-1.141.797-1.594 1.359v13.289c.094.313.274.719.539 1.219.266.484.532.875.797 1.172.391.422.836.734 1.336.937.5.203 1.047.305 1.641.305 1.547 0 2.781-.828 3.703-2.484.937-1.672 1.406-4.118 1.406-7.336ZM270.601 200h-14.11v-1.711c.313-.031.68-.07 1.102-.117.422-.047.734-.125.938-.234.328-.172.554-.422.679-.75.141-.329.211-.813.211-1.454v-10.968c0-1.61-.305-2.813-.914-3.61-.594-.797-1.445-1.195-2.555-1.195-.625 0-1.211.094-1.757.281-.532.188-1.055.461-1.571.82-.453.313-.82.633-1.101.961-.266.329-.492.618-.68.868v12.586c0 .578.07 1.039.211 1.382.141.329.406.602.797.821.234.14.539.265.914.375.391.109.766.187 1.125.234V200h-14.25v-1.711c.406-.031.797-.07 1.172-.117.39-.047.734-.125 1.031-.234.5-.188.836-.454 1.008-.797.187-.36.281-.829.281-1.407v-26.132c0-.5-.117-1.032-.351-1.594-.235-.563-.563-.985-.985-1.266-.312-.203-.765-.359-1.359-.469-.594-.125-1.125-.203-1.594-.234v-1.711l11.648-.609.352.375v16.125h.094c.594-.531 1.125-1.008 1.594-1.43.484-.437 1.07-.875 1.757-1.312.578-.375 1.328-.696 2.25-.961.938-.266 1.946-.399 3.024-.399 2.531 0 4.429.727 5.695 2.18 1.281 1.453 1.922 3.367 1.922 5.742v11.484c0 .579.086 1.039.258 1.383.172.344.492.617.961.821.281.125.593.234.937.328.344.093.766.172 1.266.234V200Zm25.265-20.484c1.156 1.078 2.039 2.367 2.648 3.867.61 1.5.914 3.125.914 4.875 0 1.734-.304 3.375-.914 4.922-.594 1.531-1.469 2.843-2.625 3.937-1.234 1.172-2.711 2.071-4.429 2.695-1.704.626-3.657.938-5.86.938-1.906 0-3.664-.273-5.273-.82-1.594-.547-3.008-1.368-4.242-2.461-1.188-1.047-2.125-2.336-2.813-3.867-.687-1.547-1.031-3.274-1.031-5.18 0-1.875.297-3.539.89-4.992.61-1.469 1.516-2.774 2.719-3.914 1.156-1.094 2.578-1.938 4.266-2.532 1.703-.609 3.601-.914 5.695-.914 2.188 0 4.109.305 5.766.914 1.672.594 3.101 1.438 4.289 2.532Zm-6 16.242c.344-.875.594-1.938.75-3.188.172-1.25.258-2.703.258-4.359 0-1.094-.079-2.344-.235-3.75-.156-1.406-.39-2.516-.703-3.328-.375-.985-.898-1.758-1.57-2.321-.656-.562-1.492-.843-2.508-.843-1.109 0-2 .304-2.672.914-.656.609-1.164 1.398-1.523 2.367-.328.891-.555 1.938-.68 3.141-.125 1.187-.188 2.429-.188 3.726 0 1.703.055 3.117.165 4.242.109 1.11.375 2.227.796 3.352.36.969.875 1.734 1.547 2.297.672.562 1.524.844 2.555.844.937 0 1.742-.258 2.414-.774.672-.531 1.203-1.305 1.594-2.32Zm29.202 3.164c-1 .437-2.07.828-3.211 1.172-1.14.359-2.531.539-4.172.539-2.437 0-4.25-.594-5.437-1.781-1.172-1.188-1.758-2.883-1.758-5.086v-14.391h-4.219v-2.531h4.313v-7.102h7.617v7.102h6.563v2.531h-6.516v12.844c0 1.828.25 3.125.75 3.89.516.766 1.43 1.149 2.742 1.149.422 0 1.008-.031 1.758-.094.75-.062 1.273-.133 1.57-.211v1.969Zm24.749-19.406c1.157 1.078 2.04 2.367 2.649 3.867s.914 3.125.914 4.875c0 1.734-.305 3.375-.914 4.922-.594 1.531-1.469 2.843-2.625 3.937-1.234 1.172-2.711 2.071-4.43 2.695-1.703.626-3.656.938-5.859.938-1.906 0-3.664-.273-5.274-.82-1.593-.547-3.007-1.368-4.242-2.461-1.187-1.047-2.125-2.336-2.812-3.867-.688-1.547-1.032-3.274-1.032-5.18 0-1.875.297-3.539.891-4.992.609-1.469 1.516-2.774 2.719-3.914 1.156-1.094 2.578-1.938 4.265-2.532 1.704-.609 3.602-.914 5.696-.914 2.187 0 4.109.305 5.765.914 1.672.594 3.102 1.438 4.289 2.532Zm-6 16.242c.344-.875.594-1.938.75-3.188.172-1.25.258-2.703.258-4.359 0-1.094-.078-2.344-.234-3.75-.156-1.406-.391-2.516-.703-3.328-.375-.985-.899-1.758-1.571-2.321-.656-.562-1.492-.843-2.507-.843-1.11 0-2 .304-2.672.914-.656.609-1.164 1.398-1.524 2.367-.328.891-.554 1.938-.679 3.141-.125 1.187-.188 2.429-.188 3.726 0 1.703.055 3.117.164 4.242.11 1.11.375 2.227.797 3.352.359.969.875 1.734 1.547 2.297.672.562 1.523.844 2.555.844.937 0 1.742-.258 2.414-.774.672-.531 1.203-1.305 1.593-2.32Zm38.015-16.383h-5.156c.61.687 1.063 1.414 1.36 2.18.312.765.468 1.562.468 2.39 0 1.078-.289 2.094-.867 3.047-.578.938-1.336 1.703-2.273 2.297-.953.609-2.071 1.086-3.352 1.43-1.281.343-2.672.515-4.172.515h-3.82c-.188.141-.399.368-.633.68-.219.297-.328.586-.328.867 0 .688.273 1.164.82 1.43.547.266 1.539.414 2.977.445 1.422.032 2.859.094 4.312.188 1.453.078 2.493.125 3.118.14.906.047 1.804.235 2.695.563.89.312 1.664.726 2.32 1.242.719.547 1.313 1.25 1.781 2.109.469.844.704 1.821.704 2.93 0 1.188-.29 2.305-.868 3.352-.562 1.047-1.429 1.953-2.601 2.718-1.235.797-2.719 1.414-4.453 1.852-1.719.438-3.852.656-6.399.656-4.109 0-7.234-.5-9.375-1.5-2.14-1-3.211-2.5-3.211-4.5 0-1.234.578-2.25 1.735-3.047 1.156-.797 2.953-1.234 5.39-1.312v-.281c-1.437-.485-2.562-1.125-3.375-1.922-.797-.813-1.195-1.75-1.195-2.813 0-.656.156-1.211.469-1.664.328-.453.742-.851 1.242-1.195.437-.297.969-.547 1.594-.75.625-.219 1.148-.391 1.57-.516v-.258c-2.109-.781-3.664-1.734-4.664-2.859-.984-1.125-1.477-2.5-1.477-4.125 0-2.297 1.055-4.133 3.164-5.508 2.125-1.375 4.813-2.062 8.063-2.062 1.062 0 2.086.094 3.07.281 1 .172 1.758.328 2.274.469h9.093v2.531Zm-10.992 4.477c0-1.829-.289-3.274-.867-4.336-.578-1.063-1.469-1.594-2.672-1.594-.609 0-1.14.148-1.594.445-.453.281-.82.695-1.101 1.242-.266.532-.445 1.157-.539 1.875-.094.704-.141 1.43-.141 2.18 0 1.703.297 3.102.891 4.195.594 1.094 1.437 1.641 2.531 1.641 1.125 0 1.984-.492 2.578-1.477.61-.984.914-2.375.914-4.171Zm3.938 19.687c0-.531-.149-1.062-.446-1.594-.296-.515-.961-.937-1.992-1.265-.562-.094-1.492-.157-2.789-.188-1.281-.031-3.047-.047-5.297-.047-.547.469-1.008 1.024-1.383 1.664-.359.641-.539 1.414-.539 2.321 0 .39.11.82.329 1.289.218.469.562.906 1.031 1.312.547.453 1.156.805 1.828 1.055.672.266 1.687.398 3.047.398 2.015 0 3.554-.39 4.617-1.172 1.062-.781 1.594-2.039 1.594-3.773Zm31.03-22.5c0 1.188-.367 2.234-1.101 3.141-.735.89-1.703 1.336-2.907 1.336-1.14 0-2.109-.289-2.906-.868-.781-.578-1.172-1.429-1.172-2.554 0-.547.039-.969.118-1.266.078-.312.148-.601.21-.867-.718.031-1.476.281-2.273.75-.797.469-1.5 1.094-2.109 1.875v12.867c0 .547.086 1 .257 1.359.172.36.461.641.868.844.343.172.898.321 1.664.446.781.109 1.343.171 1.687.187V200h-15.679v-1.711c.39-.031.781-.07 1.171-.117.407-.063.75-.141 1.032-.234.5-.172.843-.438 1.031-.797.187-.36.281-.829.281-1.407v-13.64c0-.563-.133-1.063-.398-1.5-.266-.453-.586-.813-.961-1.078-.281-.188-.641-.344-1.078-.469-.422-.125-.891-.211-1.407-.258v-1.711l11.18-.609.352.351v3.399h.093c1.079-1.25 2.219-2.227 3.422-2.93 1.219-.719 2.485-1.078 3.797-1.078 1.453 0 2.617.453 3.492 1.359.891.891 1.336 2.047 1.336 3.469Zm27.609 18.469c-.688.297-1.5.57-2.438.82-.937.25-1.929.375-2.976.375-1.922 0-3.336-.281-4.242-.844-.907-.578-1.524-1.398-1.852-2.461h-.141c-.531.532-1.046.985-1.546 1.36-.485.375-1.008.695-1.571.961-.734.343-1.445.593-2.133.75-.671.172-1.617.258-2.835.258-1.813 0-3.36-.532-4.641-1.594-1.281-1.078-1.922-2.5-1.922-4.266 0-1.015.141-1.875.422-2.578.281-.719.68-1.351 1.195-1.898.469-.5 1.008-.914 1.617-1.243.625-.328 1.305-.632 2.039-.914 1.407-.515 3.094-1.046 5.063-1.593 1.969-.563 3.406-1.063 4.312-1.5v-2.25c0-.391-.031-.907-.093-1.547-.063-.641-.196-1.18-.399-1.617-.218-.5-.562-.922-1.031-1.266-.469-.344-1.086-.516-1.852-.516-.687 0-1.265.102-1.734.305-.453.188-.82.383-1.101.586.046.312.179.789.398 1.43.219.64.328 1.257.328 1.851 0 .266-.07.602-.211 1.008-.14.391-.344.703-.609.937-.36.313-.766.555-1.219.727-.437.172-1.117.258-2.039.258-1.313 0-2.305-.313-2.977-.938-.671-.64-1.007-1.468-1.007-2.484 0-.875.343-1.656 1.031-2.344.703-.703 1.555-1.281 2.555-1.734.984-.469 2.117-.828 3.398-1.078 1.281-.266 2.469-.399 3.562-.399 1.516 0 2.907.094 4.172.282 1.266.171 2.407.539 3.422 1.101.969.547 1.735 1.344 2.297 2.391.578 1.031.867 2.383.867 4.054 0 1.766-.039 3.86-.117 6.282-.062 2.422-.094 4.015-.094 4.781 0 .703.102 1.258.305 1.664.219.406.547.711.984.914.266.125.68.203 1.243.234.578.016 1.101.024 1.57.024v1.711Zm-11.649-12.211c-.875.297-1.742.641-2.601 1.031-.859.375-1.563.774-2.109 1.195-.579.438-1.032 1-1.36 1.688-.328.672-.492 1.469-.492 2.391 0 1.218.273 2.101.82 2.648.563.547 1.25.82 2.063.82.859 0 1.562-.172 2.109-.515.563-.36 1.055-.797 1.477-1.313l.093-7.945Z"/>
      <path d="M456.947 188.586c0 3.297-1.101 6.125-3.304 8.484-2.203 2.36-4.992 3.539-8.367 3.539-1.5 0-2.719-.156-3.657-.468-.937-.297-1.711-.664-2.32-1.102h-.187v6.586c0 .547.117 1.023.351 1.43.25.406.594.703 1.031.89.422.172 1.016.328 1.782.469.781.141 1.429.227 1.945.258v1.734h-16.922v-1.734c.391-.031.883-.094 1.477-.188.593-.078 1.039-.164 1.336-.257.5-.172.835-.469 1.007-.891.188-.406.282-.875.282-1.406v-23.977c-.047-.515-.172-.969-.375-1.359-.188-.391-.493-.735-.914-1.032-.313-.203-.727-.367-1.243-.492-.515-.14-1.023-.234-1.523-.281v-1.711l11.414-.609.352.304v2.602l.187.047c1.031-1.047 2.172-1.86 3.422-2.438 1.266-.578 2.516-.867 3.75-.867 3.234 0 5.789 1.149 7.664 3.445 1.875 2.282 2.812 5.29 2.812 9.024Zm-8.414.094c0-1.172-.086-2.289-.257-3.352-.172-1.078-.477-2.039-.914-2.883-.422-.843-.985-1.515-1.688-2.015-.687-.5-1.531-.75-2.531-.75-1.016 0-1.828.179-2.438.539-.609.343-1.14.797-1.593 1.359v13.289c.093.313.273.719.539 1.219.265.484.531.875.796 1.172.391.422.836.734 1.336.937.5.203 1.047.305 1.641.305 1.547 0 2.781-.828 3.703-2.484.938-1.672 1.406-4.118 1.406-7.336ZM489.642 200h-14.109v-1.711c.312-.031.679-.07 1.101-.117.422-.047.735-.125.938-.234.328-.172.554-.422.679-.75.141-.329.211-.813.211-1.454v-10.968c0-1.61-.304-2.813-.914-3.61-.593-.797-1.445-1.195-2.554-1.195-.625 0-1.211.094-1.758.281-.531.188-1.055.461-1.57.82-.454.313-.821.633-1.102.961-.266.329-.492.618-.68.868v12.586c0 .578.071 1.039.211 1.382.141.329.406.602.797.821.234.14.539.265.914.375.391.109.766.187 1.125.234V200h-14.25v-1.711c.406-.031.797-.07 1.172-.117.391-.047.734-.125 1.031-.234.5-.188.836-.454 1.008-.797.188-.36.281-.829.281-1.407v-26.132c0-.5-.117-1.032-.351-1.594-.235-.563-.563-.985-.985-1.266-.312-.203-.765-.359-1.359-.469-.594-.125-1.125-.203-1.594-.234v-1.711l11.649-.609.351.375v16.125h.094c.594-.531 1.125-1.008 1.594-1.43.484-.437 1.07-.875 1.758-1.312.578-.375 1.328-.696 2.25-.961.937-.266 1.945-.399 3.023-.399 2.531 0 4.43.727 5.695 2.18 1.282 1.453 1.922 3.367 1.922 5.742v11.484c0 .579.086 1.039.258 1.383.172.344.492.617.961.821.281.125.594.234.937.328.344.093.766.172 1.266.234V200Zm37.897-5.602c-.547.891-1.211 1.735-1.992 2.532-.766.781-1.641 1.453-2.625 2.015-1.047.594-2.109 1.039-3.188 1.336-1.062.313-2.289.469-3.679.469-2.313 0-4.313-.328-6-.984-1.672-.657-3.055-1.539-4.149-2.649-1.093-1.109-1.914-2.414-2.461-3.914-.531-1.515-.797-3.156-.797-4.922 0-1.593.29-3.117.868-4.57.593-1.469 1.429-2.773 2.507-3.914 1.063-1.109 2.399-2.008 4.008-2.695 1.625-.688 3.438-1.032 5.438-1.032 2.187 0 3.984.266 5.39.797 1.407.531 2.571 1.266 3.493 2.203.89.891 1.539 1.946 1.945 3.164.406 1.204.609 2.469.609 3.797v1.524h-15.843c0 3.203.617 5.64 1.851 7.312 1.234 1.672 3.195 2.508 5.883 2.508 1.469 0 2.789-.398 3.961-1.195 1.172-.813 2.172-1.836 3-3.071l1.781 1.289Zm-8.953-8.906c0-.937-.047-1.898-.141-2.883-.093-.984-.257-1.789-.492-2.414-.265-.734-.633-1.289-1.101-1.664-.454-.375-1.032-.562-1.735-.562-1.203 0-2.164.609-2.883 1.828-.718 1.219-1.109 3.148-1.171 5.789l7.523-.094Zm37.124-7.031c-.703.109-1.39.375-2.062.797-.656.422-1.203 1.078-1.641 1.969-1.094 2.281-2.172 4.585-3.234 6.914-1.047 2.312-2.078 4.554-3.094 6.726-.312.656-.672 1.5-1.078 2.531-.391 1.032-.719 1.969-.984 2.813h-4.313c-1.797-4.172-3.336-7.633-4.617-10.383-1.266-2.75-2.61-5.703-4.031-8.859-.329-.735-.844-1.313-1.547-1.735-.688-.422-1.391-.679-2.11-.773v-1.711h14.438v1.711c-.531.016-1.156.133-1.875.351-.719.219-1.078.5-1.078.844 0 .094.031.235.093.422.063.188.141.399.235.633.5 1.187 1.25 2.898 2.25 5.133 1.015 2.234 2.086 4.586 3.211 7.054.781-1.703 1.523-3.367 2.226-4.992.719-1.64 1.602-3.726 2.649-6.258.14-.375.219-.679.234-.914.031-.234.047-.39.047-.468 0-.282-.141-.524-.422-.727-.265-.219-.586-.406-.961-.562-.39-.157-.765-.274-1.125-.352-.359-.078-.656-.133-.89-.164v-1.711h9.679v1.711Zm24.89 15.937c-.547.891-1.211 1.735-1.992 2.532-.766.781-1.641 1.453-2.625 2.015-1.047.594-2.109 1.039-3.187 1.336-1.063.313-2.29.469-3.68.469-2.313 0-4.313-.328-6-.984-1.672-.657-3.055-1.539-4.149-2.649-1.093-1.109-1.914-2.414-2.461-3.914-.531-1.515-.796-3.156-.796-4.922 0-1.593.289-3.117.867-4.57.594-1.469 1.429-2.773 2.508-3.914 1.062-1.109 2.398-2.008 4.007-2.695 1.625-.688 3.438-1.032 5.438-1.032 2.187 0 3.984.266 5.391.797 1.406.531 2.57 1.266 3.492 2.203.89.891 1.539 1.946 1.945 3.164.406 1.204.609 2.469.609 3.797v1.524h-15.843c0 3.203.617 5.64 1.851 7.312 1.235 1.672 3.196 2.508 5.883 2.508 1.469 0 2.789-.398 3.961-1.195 1.172-.813 2.172-1.836 3-3.071l1.781 1.289Zm-8.953-8.906c0-.937-.047-1.898-.141-2.883-.093-.984-.257-1.789-.492-2.414-.265-.734-.633-1.289-1.101-1.664-.453-.375-1.032-.562-1.735-.562-1.203 0-2.164.609-2.882 1.828-.719 1.219-1.11 3.148-1.172 5.789l7.523-.094Zm33.749-4.453c0 1.188-.367 2.234-1.101 3.141-.735.89-1.703 1.336-2.906 1.336-1.141 0-2.11-.289-2.907-.868-.781-.578-1.172-1.429-1.172-2.554 0-.547.039-.969.118-1.266.078-.312.148-.601.211-.867-.719.031-1.477.281-2.274.75-.797.469-1.5 1.094-2.109 1.875v12.867c0 .547.086 1 .258 1.359.171.36.46.641.867.844.343.172.898.321 1.664.446.781.109 1.344.171 1.687.187V200h-15.679v-1.711c.39-.031.781-.07 1.171-.117.407-.063.75-.141 1.032-.234.5-.172.843-.438 1.031-.797.187-.36.281-.829.281-1.407v-13.64c0-.563-.133-1.063-.398-1.5-.266-.453-.586-.813-.961-1.078-.281-.188-.641-.344-1.078-.469-.422-.125-.891-.211-1.407-.258v-1.711l11.18-.609.352.351v3.399h.093c1.079-1.25 2.219-2.227 3.422-2.93 1.219-.719 2.485-1.078 3.797-1.078 1.453 0 2.617.453 3.492 1.359.891.891 1.336 2.047 1.336 3.469Z"/>
      <path d="M632.7 178.461c-.703.109-1.39.375-2.062.797-.656.422-1.203 1.078-1.641 1.969-1.344 2.843-2.726 5.875-4.148 9.093-1.422 3.203-3 6.672-4.735 10.407-.968 2.093-1.906 3.765-2.812 5.015-.906 1.25-1.758 2.211-2.555 2.883-.75.625-1.492 1.078-2.226 1.359-.735.282-1.477.422-2.227.422-1.484 0-2.687-.414-3.609-1.242-.907-.828-1.36-1.758-1.36-2.789 0-.437.047-.844.141-1.219.109-.375.328-.765.656-1.172.25-.343.633-.64 1.149-.89.531-.235 1.125-.352 1.781-.352.875 0 1.711.305 2.508.914.797.61 1.625 1.453 2.484 2.532.516-.516 1.149-1.29 1.899-2.321.765-1.015 1.328-2.062 1.687-3.14-1.859-3.907-3.508-7.289-4.945-10.149-1.438-2.875-3.047-6.078-4.828-9.609-.391-.75-.914-1.328-1.571-1.735-.656-.422-1.351-.679-2.086-.773v-1.711h14.344v1.711c-.531.016-1.148.133-1.851.351-.688.219-1.032.5-1.032.844 0 .125.024.266.071.422.046.141.132.352.257.633.532 1.094 1.282 2.617 2.25 4.57.985 1.938 2.125 4.211 3.422 6.821.969-2.219 1.789-4.125 2.461-5.719.688-1.61 1.352-3.188 1.992-4.735.157-.39.243-.695.258-.914.031-.234.047-.39.047-.468 0-.282-.141-.524-.422-.727-.265-.219-.586-.406-.961-.562-.39-.157-.765-.274-1.125-.352-.359-.078-.656-.133-.89-.164v-1.711h9.679v1.711Zm37.311.914h-5.156c.61.687 1.063 1.414 1.36 2.18.312.765.468 1.562.468 2.39 0 1.078-.289 2.094-.867 3.047-.578.938-1.336 1.703-2.273 2.297-.953.609-2.071 1.086-3.352 1.43-1.281.343-2.672.515-4.172.515h-3.82c-.188.141-.399.368-.633.68-.219.297-.328.586-.328.867 0 .688.273 1.164.82 1.43.547.266 1.539.414 2.977.445 1.422.032 2.859.094 4.312.188 1.453.078 2.493.125 3.118.14.906.047 1.804.235 2.695.563.89.312 1.664.726 2.32 1.242.719.547 1.313 1.25 1.781 2.109.469.844.704 1.821.704 2.93 0 1.188-.29 2.305-.868 3.352-.562 1.047-1.429 1.953-2.601 2.718-1.235.797-2.719 1.414-4.453 1.852-1.719.438-3.852.656-6.399.656-4.109 0-7.234-.5-9.375-1.5-2.14-1-3.211-2.5-3.211-4.5 0-1.234.578-2.25 1.735-3.047 1.156-.797 2.953-1.234 5.39-1.312v-.281c-1.437-.485-2.562-1.125-3.375-1.922-.797-.813-1.195-1.75-1.195-2.813 0-.656.156-1.211.469-1.664.328-.453.742-.851 1.242-1.195.437-.297.969-.547 1.594-.75.625-.219 1.148-.391 1.57-.516v-.258c-2.109-.781-3.664-1.734-4.664-2.859-.984-1.125-1.477-2.5-1.477-4.125 0-2.297 1.055-4.133 3.164-5.508 2.125-1.375 4.813-2.062 8.063-2.062 1.062 0 2.086.094 3.07.281 1 .172 1.758.328 2.274.469h9.093v2.531Zm-10.992 4.477c0-1.829-.289-3.274-.867-4.336-.578-1.063-1.469-1.594-2.672-1.594-.609 0-1.14.148-1.594.445-.453.281-.82.695-1.101 1.242-.266.532-.445 1.157-.539 1.875-.094.704-.141 1.43-.141 2.18 0 1.703.297 3.102.891 4.195.594 1.094 1.437 1.641 2.531 1.641 1.125 0 1.984-.492 2.578-1.477.61-.984.914-2.375.914-4.171Zm3.938 19.687c0-.531-.149-1.062-.446-1.594-.296-.515-.961-.937-1.992-1.265-.562-.094-1.492-.157-2.789-.188-1.281-.031-3.047-.047-5.297-.047-.547.469-1.008 1.024-1.383 1.664-.359.641-.539 1.414-.539 2.321 0 .39.11.82.329 1.289.218.469.562.906 1.031 1.312.547.453 1.156.805 1.828 1.055.672.266 1.687.398 3.047.398 2.015 0 3.554-.39 4.617-1.172 1.062-.781 1.594-2.039 1.594-3.773Zm31.03-22.5c0 1.188-.367 2.234-1.101 3.141-.735.89-1.703 1.336-2.907 1.336-1.14 0-2.109-.289-2.906-.868-.781-.578-1.172-1.429-1.172-2.554 0-.547.039-.969.118-1.266.078-.312.148-.601.21-.867-.718.031-1.476.281-2.273.75-.797.469-1.5 1.094-2.109 1.875v12.867c0 .547.086 1 .257 1.359.172.36.461.641.868.844.343.172.898.321 1.664.446.781.109 1.343.171 1.687.187V200h-15.679v-1.711c.39-.031.781-.07 1.171-.117.407-.063.75-.141 1.032-.234.5-.172.843-.438 1.031-.797.187-.36.281-.829.281-1.407v-13.64c0-.563-.133-1.063-.398-1.5-.266-.453-.586-.813-.961-1.078-.281-.188-.641-.344-1.078-.469-.422-.125-.891-.211-1.407-.258v-1.711l11.18-.609.352.351v3.399h.093c1.079-1.25 2.219-2.227 3.422-2.93 1.219-.719 2.485-1.078 3.797-1.078 1.453 0 2.617.453 3.492 1.359.891.891 1.336 2.047 1.336 3.469ZM709.619 200h-14.812v-1.711c.406-.031.805-.07 1.195-.117.391-.047.727-.125 1.008-.234.5-.188.852-.454 1.055-.797.203-.36.304-.829.304-1.407v-13.64c0-.547-.125-1.024-.375-1.43-.25-.422-.562-.758-.937-1.008-.281-.187-.711-.367-1.289-.539-.563-.172-1.078-.281-1.547-.328v-1.711l11.484-.609.352.351v18.61c0 .547.117 1.015.351 1.406.235.375.571.656 1.008.844.313.14.657.265 1.032.375.375.109.765.187 1.171.234V200Zm-3.421-31.969c0 1.188-.461 2.203-1.383 3.047-.907.828-1.985 1.242-3.235 1.242-1.265 0-2.359-.414-3.281-1.242-.906-.844-1.359-1.859-1.359-3.047 0-1.187.453-2.203 1.359-3.047.922-.843 2.016-1.265 3.281-1.265 1.266 0 2.352.422 3.258 1.265.906.844 1.36 1.86 1.36 3.047Zm35.061 31.477-11.554.68-.352-.329v-2.156l-.164-.047c-.766.828-1.805 1.555-3.117 2.18-1.297.609-2.61.914-3.938.914-3.156 0-5.758-1.172-7.804-3.516-2.047-2.343-3.071-5.375-3.071-9.093 0-3.297 1.141-6.125 3.422-8.485 2.297-2.359 5.07-3.539 8.32-3.539 1.282 0 2.485.149 3.61.445 1.125.282 2.023.618 2.695 1.008v-7.664c0-.578-.117-1.117-.351-1.617-.235-.516-.547-.914-.938-1.195-.484-.344-1.094-.586-1.828-.727-.719-.156-1.445-.265-2.18-.328v-1.711l12.657-.609.351.375v30.726c0 .594.094 1.094.281 1.5.203.407.524.727.961.961.328.172.805.297 1.43.375.641.078 1.164.125 1.57.141v1.711Zm-11.953-4.172v-13.242c-.109-.36-.265-.758-.469-1.196-.187-.437-.453-.851-.796-1.242-.313-.328-.735-.617-1.266-.867-.516-.25-1.102-.375-1.758-.375-1.562 0-2.844.883-3.844 2.648-1 1.766-1.5 4.258-1.5 7.477 0 1.266.086 2.406.258 3.422.188 1 .508 1.914.961 2.742.453.828 1.031 1.477 1.734 1.945.719.469 1.579.704 2.579.704.953 0 1.742-.18 2.367-.54.625-.374 1.203-.867 1.734-1.476Zm34.874 5.461c-1.516 0-3-.227-4.453-.68-1.438-.437-2.555-.906-3.352-1.406l-.703 1.594h-1.828l-.305-8.743h1.711c.234.704.625 1.5 1.172 2.391.547.875 1.172 1.664 1.875 2.367.734.703 1.57 1.297 2.508 1.782.953.484 1.968.726 3.047.726 1.421 0 2.476-.273 3.164-.82.703-.563 1.054-1.422 1.054-2.578 0-.625-.156-1.141-.468-1.547-.313-.406-.743-.758-1.289-1.055-.61-.312-1.282-.578-2.016-.797-.719-.219-1.609-.484-2.672-.797-1.062-.312-1.977-.625-2.742-.937-.75-.328-1.531-.836-2.344-1.524-.703-.609-1.266-1.343-1.687-2.203-.422-.859-.633-1.882-.633-3.07 0-2.203.922-3.984 2.765-5.344 1.86-1.359 4.289-2.039 7.289-2.039 1.422 0 2.727.149 3.915.445 1.203.282 2.21.594 3.023.938l.492-1.383h1.781l.375 7.992h-1.664c-.547-1.625-1.484-3.023-2.812-4.195-1.328-1.187-2.758-1.781-4.289-1.781-1.203 0-2.149.25-2.836.75-.688.5-1.031 1.195-1.031 2.086 0 1.187.5 2.047 1.5 2.578 1.015.531 2.429 1.031 4.242 1.5 2.797.719 4.844 1.703 6.14 2.953 1.297 1.234 1.946 2.812 1.946 4.734 0 2.563-1.008 4.547-3.024 5.954-2 1.406-4.617 2.109-7.851 2.109Zm43.335 9.609h-16.406v-1.734c.437-.031.961-.086 1.57-.164.625-.063 1.109-.156 1.453-.281.485-.157.828-.438 1.031-.844.204-.406.305-.891.305-1.453v-8.18l-.187-.047c-.266.25-.618.555-1.055.914-.422.36-.938.68-1.547.961-.672.328-1.32.578-1.945.75-.61.188-1.422.281-2.438.281-3.25 0-5.875-1.125-7.875-3.375s-3-5.281-3-9.093c0-3.453 1.196-6.321 3.586-8.602 2.391-2.281 5.414-3.422 9.071-3.422 1.843 0 3.507.211 4.992.633 1.484.406 2.867.945 4.148 1.617l3.047-3 1.289.305c-.047.984-.125 2.273-.234 3.867-.094 1.578-.141 2.891-.141 3.938v22.054c0 .578.102 1.071.305 1.477.219.422.562.734 1.031.937.344.157.813.305 1.406.446.594.14 1.125.234 1.594.281v1.734Zm-12.047-15.07v-13.242c-.109-.391-.265-.813-.469-1.266-.187-.453-.461-.89-.82-1.312-.344-.391-.773-.711-1.289-.961-.5-.25-1.109-.375-1.828-.375-1.563 0-2.828.914-3.797 2.742-.953 1.828-1.43 4.351-1.43 7.57 0 1.313.102 2.477.305 3.492.203 1 .508 1.875.914 2.625.469.829 1.031 1.469 1.688 1.922.656.453 1.531.68 2.625.68 1 0 1.812-.164 2.437-.492.625-.344 1.18-.805 1.664-1.383Zm42.538 4.172-11.179.68-.352-.329v-3.07h-.14c-.532.484-1.055.961-1.571 1.43-.5.453-1.101.867-1.804 1.242-.797.422-1.555.734-2.274.937-.703.204-1.734.305-3.094.305-2.359 0-4.171-.711-5.437-2.133-1.25-1.422-1.875-3.429-1.875-6.023V182c0-.609-.117-1.102-.352-1.477-.234-.39-.547-.734-.937-1.031-.313-.234-.719-.398-1.219-.492-.5-.109-.953-.18-1.359-.211v-1.711l11.367-.609.258.351v15.586c0 1.61.304 2.797.914 3.563.625.765 1.476 1.148 2.554 1.148 1.11 0 2.102-.289 2.977-.867.891-.578 1.539-1.195 1.945-1.852v-12.632c0-.532-.101-1.008-.304-1.43-.203-.422-.5-.766-.891-1.031-.281-.188-.687-.313-1.219-.375-.515-.063-1.047-.11-1.593-.141v-1.711l11.367-.609.351.351v18.094c0 .547.11 1.016.328 1.406.219.375.539.696.961.961.297.188.68.321 1.149.399.484.062.961.101 1.429.117v1.711Zm27.867 0c-.688.297-1.5.57-2.438.82-.937.25-1.929.375-2.976.375-1.922 0-3.336-.281-4.242-.844-.907-.578-1.524-1.398-1.852-2.461h-.14c-.532.532-1.047.985-1.547 1.36-.485.375-1.008.695-1.571.961-.734.343-1.445.593-2.132.75-.672.172-1.618.258-2.836.258-1.813 0-3.36-.532-4.641-1.594-1.281-1.078-1.922-2.5-1.922-4.266 0-1.015.141-1.875.422-2.578.281-.719.68-1.351 1.195-1.898.469-.5 1.008-.914 1.617-1.243.625-.328 1.305-.632 2.04-.914 1.406-.515 3.093-1.046 5.062-1.593 1.969-.563 3.406-1.063 4.313-1.5v-2.25c0-.391-.032-.907-.094-1.547-.063-.641-.196-1.18-.399-1.617-.218-.5-.562-.922-1.031-1.266-.469-.344-1.086-.516-1.851-.516-.688 0-1.266.102-1.735.305-.453.188-.82.383-1.101.586.046.312.179.789.398 1.43.219.64.328 1.257.328 1.851 0 .266-.07.602-.211 1.008-.14.391-.344.703-.609.937-.36.313-.766.555-1.219.727-.437.172-1.117.258-2.039.258-1.312 0-2.305-.313-2.977-.938-.671-.64-1.007-1.468-1.007-2.484 0-.875.343-1.656 1.031-2.344.703-.703 1.555-1.281 2.555-1.734.984-.469 2.117-.828 3.398-1.078 1.281-.266 2.469-.399 3.563-.399 1.515 0 2.906.094 4.171.282 1.266.171 2.407.539 3.422 1.101.969.547 1.735 1.344 2.297 2.391.578 1.031.867 2.383.867 4.054 0 1.766-.039 3.86-.117 6.282-.062 2.422-.094 4.015-.094 4.781 0 .703.102 1.258.305 1.664.219.406.547.711.984.914.266.125.68.203 1.243.234.578.016 1.101.024 1.57.024v1.711Zm-11.648-12.211c-.875.297-1.743.641-2.602 1.031-.859.375-1.563.774-2.109 1.195-.579.438-1.032 1-1.36 1.688-.328.672-.492 1.469-.492 2.391 0 1.218.273 2.101.82 2.648.563.547 1.25.82 2.063.82.859 0 1.562-.172 2.109-.515.563-.36 1.055-.797 1.477-1.313l.094-7.945Zm35.975-6.258c0 1.188-.367 2.234-1.101 3.141-.735.89-1.703 1.336-2.906 1.336-1.141 0-2.11-.289-2.907-.868-.781-.578-1.172-1.429-1.172-2.554 0-.547.04-.969.118-1.266.078-.312.148-.601.211-.867-.719.031-1.477.281-2.274.75-.797.469-1.5 1.094-2.109 1.875v12.867c0 .547.086 1 .258 1.359.171.36.461.641.867.844.344.172.898.321 1.664.446.781.109 1.344.171 1.687.187V200h-15.679v-1.711c.39-.031.781-.07 1.172-.117.406-.063.75-.141 1.031-.234.5-.172.844-.438 1.031-.797.188-.36.281-.829.281-1.407v-13.64c0-.563-.133-1.063-.398-1.5-.266-.453-.586-.813-.961-1.078-.281-.188-.641-.344-1.078-.469-.422-.125-.891-.211-1.406-.258v-1.711l11.179-.609.352.351v3.399h.094c1.078-1.25 2.218-2.227 3.421-2.93 1.219-.719 2.485-1.078 3.797-1.078 1.453 0 2.617.453 3.492 1.359.891.891 1.336 2.047 1.336 3.469Zm26.015 13.359c-.547.891-1.211 1.735-1.992 2.532-.766.781-1.641 1.453-2.625 2.015-1.047.594-2.109 1.039-3.187 1.336-1.063.313-2.289.469-3.68.469-2.313 0-4.313-.328-6-.984-1.672-.657-3.055-1.539-4.149-2.649-1.093-1.109-1.914-2.414-2.46-3.914-.532-1.515-.797-3.156-.797-4.922 0-1.593.289-3.117.867-4.57.594-1.469 1.43-2.773 2.508-3.914 1.062-1.109 2.398-2.008 4.007-2.695 1.625-.688 3.438-1.032 5.438-1.032 2.187 0 3.984.266 5.391.797 1.406.531 2.57 1.266 3.492 2.203.89.891 1.539 1.946 1.945 3.164.406 1.204.609 2.469.609 3.797v1.524h-15.843c0 3.203.617 5.64 1.851 7.312 1.235 1.672 3.196 2.508 5.883 2.508 1.469 0 2.789-.398 3.961-1.195 1.172-.813 2.172-1.836 3-3.071l1.781 1.289Zm-8.953-8.906c0-.937-.047-1.898-.14-2.883-.094-.984-.258-1.789-.493-2.414-.265-.734-.632-1.289-1.101-1.664-.453-.375-1.031-.562-1.735-.562-1.203 0-2.164.609-2.882 1.828-.719 1.219-1.11 3.148-1.172 5.789l7.523-.094Zm22.64-15.047c0 .641-.117 1.493-.351 2.555-.219 1.047-.5 2.281-.844 3.703-.328 1.344-.703 3.024-1.125 5.039-.422 2-.867 4.477-1.336 7.43h-1.805c-.469-2.984-.914-5.469-1.336-7.453-.422-1.985-.797-3.649-1.125-4.992-.297-1.235-.57-2.438-.82-3.61-.25-1.187-.375-2.078-.375-2.672 0-1.203.445-2.226 1.336-3.07.89-.859 1.961-1.289 3.211-1.289 1.234 0 2.304.43 3.211 1.289.906.844 1.359 1.867 1.359 3.07Zm-.047 25.899c0 1.187-.453 2.211-1.359 3.07-.891.844-1.938 1.266-3.141 1.266-1.219 0-2.281-.422-3.187-1.266-.891-.859-1.336-1.883-1.336-3.07 0-1.188.445-2.211 1.336-3.071.906-.875 1.968-1.312 3.187-1.312 1.203 0 2.25.437 3.141 1.312.906.86 1.359 1.883 1.359 3.071Z"/>
    </g>
  </g>
  <defs>
    <filter id="b" width="203" height="227" x="0" y="1" color-interpolation-filters="sRGB" filterUnits="userSpaceOnUse">
      <feFlood flood-opacity="0" result="BackgroundImageFix"/>
      <feColorMatrix in="SourceAlpha" result="hardAlpha" values="0 0 0 0 0 0 0 0 0 0 0 0 0 0 0 0 0 0 127 0"/>
      <feOffset dx="5" dy="5"/>
      <feGaussianBlur stdDeviation="1.5"/>
      <feColorMatrix values="0 0 0 0 0 0 0 0 0 0 0 0 0 0 0 0 0 0 0.5 0"/>
      <feBlend in2="BackgroundImageFix" result="effect1_dropShadow_101_2"/>
      <feBlend in="SourceGraphic" in2="effect1_dropShadow_101_2" result="shape"/>
    </filter>
    <filter id="c" width="710.423" height="160.707" x="210.146" y=".330078" color-interpolation-filters="sRGB" filterUnits="userSpaceOnUse">
      <feFlood flood-opacity="0" result="BackgroundImageFix"/>
      <feColorMatrix in="SourceAlpha" result="hardAlpha" values="0 0 0 0 0 0 0 0 0 0 0 0 0 0 0 0 0 0 127 0"/>
      <feOffset dx="5" dy="5"/>
      <feGaussianBlur stdDeviation="1.5"/>
      <feColorMatrix values="0 0 0 0 0 0 0 0 0 0 0 0 0 0 0 0 0 0 0.5 0"/>
      <feBlend in2="BackgroundImageFix" result="effect1_dropShadow_101_2"/>
      <feBlend in="SourceGraphic" in2="effect1_dropShadow_101_2" result="shape"/>
    </filter>
    <filter id="d" width="729.644" height="54.6875" x="208.258" y="163.719" color-interpolation-filters="sRGB" filterUnits="userSpaceOnUse">
      <feFlood flood-opacity="0" result="BackgroundImageFix"/>
      <feColorMatrix in="SourceAlpha" result="hardAlpha" values="0 0 0 0 0 0 0 0 0 0 0 0 0 0 0 0 0 0 127 0"/>
      <feOffset dx="5" dy="5"/>
      <feGaussianBlur stdDeviation="1.5"/>
      <feColorMatrix values="0 0 0 0 0 0 0 0 0 0 0 0 0 0 0 0 0 0 0.5 0"/>
      <feBlend in2="BackgroundImageFix" result="effect1_dropShadow_101_2"/>
      <feBlend in="SourceGraphic" in2="effect1_dropShadow_101_2" result="shape"/>
    </filter>
    <clipPath id="a">
      <path fill="#fff" d="M0 0h938v228H0z"/>
    </clipPath>
  </defs>
</svg>
